<?xml version="1.0" encoding="utf-8"?>
<!-- Generator: Adobe Illustrator 17.0.0, SVG Export Plug-In . SVG Version: 6.00 Build 0)  -->
<!DOCTYPE svg PUBLIC "-//W3C//DTD SVG 1.1//EN" "http://www.w3.org/Graphics/SVG/1.1/DTD/svg11.dtd">
<svg version="1.1" id="Layer_1" xmlns="http://www.w3.org/2000/svg" xmlns:xlink="http://www.w3.org/1999/xlink" x="0px" y="0px"
	 width="16px" height="32px" viewBox="0 0 16 32" enable-background="new 0 0 16 32" xml:space="preserve">
<path fill="#DDDDDD" d="M8,0C3.581,0,0,3.581,0,8s3.581,8,8,8s8-3.581,8-8S12.419,0,8,0z M11.923,10.1
	c0.152,0.152,0.152,0.397,0,0.548l-1.277,1.274c-0.152,0.152-0.397,0.152-0.548,0L8,9.806l-2.1,2.116
	c-0.152,0.152-0.397,0.152-0.548,0l-1.274-1.277c-0.152-0.152-0.152-0.397,0-0.548L6.194,8L4.077,5.9
	c-0.152-0.152-0.152-0.397,0-0.548l1.277-1.277c0.152-0.152,0.397-0.152,0.548,0L8,6.194l2.1-2.116c0.152-0.152,0.397-0.152,0.548,0
	l1.277,1.277c0.152,0.152,0.152,0.397,0,0.548L9.806,8L11.923,10.1z"/>
<path fill="#E23333" d="M8,16c-4.419,0-8,3.581-8,8s3.581,8,8,8s8-3.581,8-8S12.419,16,8,16z M11.923,26.1
	c0.152,0.152,0.152,0.397,0,0.548l-1.277,1.274c-0.152,0.152-0.397,0.152-0.548,0L8,25.806l-2.1,2.116
	c-0.152,0.152-0.397,0.152-0.548,0l-1.274-1.277c-0.152-0.152-0.152-0.397,0-0.548L6.194,24l-2.116-2.1
	c-0.152-0.152-0.152-0.397,0-0.548l1.277-1.277c0.152-0.152,0.397-0.152,0.548,0L8,22.194l2.1-2.116
	c0.152-0.152,0.397-0.152,0.548,0l1.277,1.277c0.152,0.152,0.152,0.397,0,0.548L9.806,24L11.923,26.1z"/>
</svg>
