<?xml version="1.0" encoding="utf-8"?>
<!-- Generator: Adobe Illustrator 17.0.0, SVG Export Plug-In . SVG Version: 6.00 Build 0)  -->
<!DOCTYPE svg PUBLIC "-//W3C//DTD SVG 1.1//EN" "http://www.w3.org/Graphics/SVG/1.1/DTD/svg11.dtd">
<svg version="1.1" id="Layer_1" xmlns="http://www.w3.org/2000/svg" xmlns:xlink="http://www.w3.org/1999/xlink" x="0px" y="0px"
	 width="20px" height="64px" viewBox="0 0 20 64" enable-background="new 0 0 20 64" xml:space="preserve">
<polygon display="none" fill="#DDDDDD" points="4.931,15.863 5.948,10.112 2,5.974 7.539,5.21 10.077,0 12.483,5.279 18,6.196 
	13.948,10.223 14.82,16 9.91,13.21 "/>
<polygon display="none" fill="#F23636" points="4.931,31.863 5.948,26.112 2,21.974 7.539,21.21 10.077,16 12.483,21.279 18,22.196 
	13.948,26.223 14.82,32 9.91,29.21 "/>
<polygon display="none" fill="#FFC942" points="4.931,47.863 5.948,42.112 2,37.974 7.539,37.21 10.077,32 12.483,37.279 18,38.196 
	13.948,42.223 14.82,48 9.91,45.21 "/>
<polygon display="none" fill="#FF8745" points="4.931,63.863 5.948,58.112 2,53.974 7.539,53.21 10.077,48 12.483,53.279 18,54.196 
	13.948,58.223 14.82,64 9.91,61.21 "/>
<path fill="#DDDDDD" d="M9.142,0.557L7.189,4.694L2.819,5.359C2.036,5.478,1.722,6.487,2.29,7.065l3.161,3.218L4.704,14.83
	c-0.135,0.822,0.694,1.437,1.388,1.053L10,13.736l3.909,2.147c0.694,0.381,1.522-0.231,1.388-1.053l-0.748-4.546l3.161-3.218
	c0.568-0.578,0.254-1.587-0.529-1.706l-4.369-0.666l-1.953-4.137C10.508-0.181,9.495-0.19,9.142,0.557z"/>
<path fill="#F23636" d="M9.142,16.557l-1.953,4.137l-4.369,0.666c-0.784,0.119-1.098,1.128-0.529,1.706l3.161,3.218L4.704,30.83
	c-0.135,0.822,0.694,1.437,1.388,1.053L10,29.736l3.909,2.147c0.694,0.381,1.522-0.231,1.388-1.053l-0.748-4.546l3.161-3.218
	c0.568-0.578,0.254-1.587-0.529-1.706l-4.369-0.666l-1.953-4.137C10.508,15.819,9.495,15.81,9.142,16.557z"/>
<path fill="#FFC942" d="M9.142,32.557l-1.953,4.137l-4.369,0.666c-0.784,0.119-1.098,1.128-0.529,1.706l3.161,3.218L4.704,46.83
	c-0.135,0.822,0.694,1.437,1.388,1.053L10,45.736l3.909,2.147c0.694,0.381,1.522-0.231,1.388-1.053l-0.748-4.546l3.161-3.218
	c0.568-0.578,0.254-1.587-0.529-1.706l-4.369-0.666l-1.953-4.137C10.508,31.819,9.495,31.81,9.142,32.557z"/>
<path fill="#FF8745" d="M9.142,48.557l-1.953,4.137l-4.369,0.666c-0.784,0.119-1.098,1.128-0.529,1.706l3.161,3.218L4.704,62.83
	c-0.135,0.822,0.694,1.437,1.388,1.053L10,61.736l3.909,2.147c0.694,0.381,1.522-0.231,1.388-1.053l-0.748-4.546l3.161-3.218
	c0.568-0.578,0.254-1.587-0.529-1.706l-4.369-0.666l-1.953-4.137C10.508,47.819,9.495,47.81,9.142,48.557z"/>
</svg>
